<svg width="123" height="119" viewBox="0 0 123 119" fill="none" xmlns="http://www.w3.org/2000/svg">
<g clip-path="url(#clip0_795_281)">
<path d="M113.369 1.47677C113.589 1.48792 113.866 1.51012 114.187 1.55288C114.584 1.60581 115.044 1.68992 115.541 1.82252C117.849 2.47252 119.806 3.97441 121.043 5.97234C121.746 7.21021 122.266 8.79299 122.459 10.8195C122.38 12.4859 122.053 13.8607 121.567 14.996C120.666 16.9185 119.138 18.4926 117.243 19.451C116.235 19.9271 115.26 20.1811 114.506 20.3161C114.082 20.3921 113.73 20.4299 113.487 20.4487C113.366 20.458 113.272 20.4626 113.209 20.4649C113.2 20.4652 113.192 20.4655 113.185 20.4657C113.161 20.4662 113.137 20.4667 113.114 20.4671C12.4495 22.0848 -24.8553 86.7532 -31.354 117.553L-49.9755 113.778C-41.9751 75.5422 1.95392 3.25111 112.809 1.46952C112.997 1.4665 113.184 1.46896 113.369 1.47677Z" fill="white" stroke="black"/>
</g>
<defs>
<clipPath id="clip0_795_281">
<rect width="123" height="119" fill="white"/>
</clipPath>
</defs>
</svg>
